<svg width="14" height="14" viewBox="0 0 14 14" fill="none" xmlns="http://www.w3.org/2000/svg">
<path fill-rule="evenodd" clip-rule="evenodd" d="M13.6668 6.99992C13.6668 10.6818 10.6821 13.6666 7.00016 13.6666C3.31826 13.6666 0.333496 10.6818 0.333496 6.99992C0.333496 3.31802 3.31826 0.333252 7.00016 0.333252C10.6821 0.333252 13.6668 3.31802 13.6668 6.99992ZM7.66683 4.33325C7.66683 3.96506 7.36835 3.66659 7.00016 3.66659C6.63197 3.66659 6.3335 3.96506 6.3335 4.33325V6.99992C6.3335 7.36811 6.63197 7.66659 7.00016 7.66659C7.36835 7.66659 7.66683 7.36811 7.66683 6.99992V4.33325ZM6.3335 9.66659C6.3335 9.2984 6.63197 8.99992 7.00016 8.99992H7.00683C7.37502 8.99992 7.6735 9.2984 7.6735 9.66659C7.6735 10.0348 7.37502 10.3333 7.00683 10.3333H7.00016C6.63197 10.3333 6.3335 10.0348 6.3335 9.66659Z" fill="#CB0A21"/>
</svg>
