<svg width="16" height="12" viewBox="0 0 16 12" fill="none" xmlns="http://www.w3.org/2000/svg">
<path d="M5.54989 11.7125C5.40061 11.7125 5.25866 11.6877 5.12406 11.6381C4.98946 11.5885 4.86619 11.5077 4.75424 11.3957L0.454238 7.0957C0.243005 6.88447 0.141555 6.61508 0.149888 6.28755C0.158222 5.96002 0.268005 5.69063 0.479238 5.4794C0.690472 5.26817 0.95768 5.16255 1.28086 5.16255C1.60405 5.16255 1.87126 5.26817 2.08249 5.4794L5.54989 8.94677L13.9173 0.579399C14.1285 0.368165 14.3979 0.261549 14.7254 0.259549C15.053 0.257565 15.3243 0.364182 15.5396 0.579399C15.7508 0.790632 15.8564 1.06102 15.8564 1.39055C15.8564 1.72007 15.7508 1.99044 15.5396 2.20167L6.34554 11.3957C6.23359 11.5077 6.11031 11.5885 5.97571 11.6381C5.84111 11.6877 5.69917 11.7125 5.54989 11.7125Z" fill="white"/>
</svg>
