<svg width="24" height="24" viewBox="0 0 24 24" fill="none" xmlns="http://www.w3.org/2000/svg">
<path d="M5.16 7.33489C6.36 7.33489 7.32 6.35989 7.32 5.17489C7.32 3.98989 6.345 3.01489 5.16 3.01489C3.975 3.01489 3 3.98989 3 5.17489C3 6.35989 3.975 7.33489 5.16 7.33489ZM9.375 8.96989V20.9999H13.095V15.0599C13.095 13.4849 13.395 11.9699 15.33 11.9699C17.265 11.9699 17.265 13.7699 17.265 15.1499V20.9999H21V14.3999C21 11.1599 20.31 8.66989 16.53 8.66989C14.715 8.66989 13.5 9.65989 13.005 10.6049H12.96V8.95489H9.39L9.375 8.96989ZM3.3 8.96989H7.035V20.9999H3.3V8.96989Z" fill="white"/>
</svg>
