<svg width="14" height="14" viewBox="0 0 14 14" fill="none" xmlns="http://www.w3.org/2000/svg">
<path fill-rule="evenodd" clip-rule="evenodd" d="M7.00016 13.6666C10.6821 13.6666 13.6668 10.6818 13.6668 6.99992C13.6668 3.31802 10.6821 0.333252 7.00016 0.333252C3.31826 0.333252 0.333496 3.31802 0.333496 6.99992C0.333496 10.6818 3.31826 13.6666 7.00016 13.6666ZM9.47157 5.19518C9.73192 5.45553 9.73192 5.87764 9.47157 6.13799L6.8049 8.80466C6.54455 9.06501 6.12244 9.06501 5.86209 8.80466L4.52876 7.47132C4.26841 7.21097 4.26841 6.78886 4.52876 6.52851C4.78911 6.26817 5.21122 6.26817 5.47157 6.52851L6.3335 7.39044L8.52876 5.19518C8.78911 4.93483 9.21122 4.93483 9.47157 5.19518Z" fill="#2BAC47"/>
</svg>
